<svg width="863" height="367" viewBox="0 0 863 367" fill="none" xmlns="http://www.w3.org/2000/svg">
<rect x="215.02" y="17.0957" width="20" height="9.51099" transform="rotate(-11.2499 215.02 17.0957)" fill="#878383"/>
<circle cx="236" cy="18" r="5" fill="#878383"/>
<circle cx="251" cy="18" r="5" fill="#7C7C7C"/>
<rect x="231.207" y="16.9961" width="20" height="9.61277" transform="rotate(-11.2499 231.207 16.9961)" fill="#7C7C7C"/>
<circle cx="217" cy="22" r="5" fill="#DABABA"/>
<circle cx="232" cy="22" r="5" fill="#A2A2A2"/>
<circle cx="231.5" cy="22.5" r="3.5" fill="#A9D9F3"/>
<path d="M203.502 200.36C203.502 199.184 206.639 183.108 208.208 175.266C209.002 171.295 207.208 152.44 216 153.5C222.376 154.269 225.259 167.162 226.636 171.345C226.636 171.345 232.779 185.199 234.87 190.166L234.867 190.17C234.46 190.849 230.5 197.448 230.5 206C230.5 214.571 233.955 225.062 234.87 237.217L244.672 239.569C245.718 222.187 247.809 186.872 247.809 184.676C247.809 182.481 240.529 143.831 237 130.5L193.5 134.5C193.5 134.5 191.893 180.67 191.5 182.5C191.108 184.33 189.496 189.928 185.5 206C181.505 222.072 186.773 228.46 187.427 239.569L196.445 235.648C198.797 224.278 203.502 201.301 203.502 200.36Z" fill="#6D739D"/>
<path d="M223.547 29.9426C222.302 31.2991 221.123 34.6544 220.689 36.1624L228.666 39.3756L229.727 36.9253C230.159 35.0087 232.79 30.0466 232.326 28.6885C231.747 26.9908 228.563 25.2598 226.243 25.4113C223.921 25.5631 225.103 28.2471 223.547 29.9426Z" fill="#E4C197"/>
<path d="M190.256 61.9192C192.486 56.5005 197.061 49.5432 199.999 47.0002L197.854 59.0002L200.499 63.0002L223.499 37.5002L229.501 39.0002C229.501 39.0002 194.5 92.5002 191.499 91.0002C188.498 89.5003 182.357 81.1056 190.256 61.9192Z" fill="#60757A"/>
<path d="M247.5 19.3975C246.511 18.2806 241.762 19.8956 241.054 21.1211C240.123 22.7323 238.426 25.3805 239.823 27.0209L243.429 31.8462L250.796 29.1505C252.542 26.1308 251.63 24.5096 250.06 22.512L250.059 22.5108C248.489 20.5144 248.489 20.5141 247.5 19.3975Z" fill="#FFD9AD"/>
<path d="M218.002 139C224.276 138.686 233.825 134.506 237.615 133.722C236.962 111.111 241.5 70.5 241.5 70.5C243.804 76.2602 252.504 79.595 261.001 76.5C269.499 73.405 266.035 67.6967 264 54C261.943 40.1609 252.505 27 252.505 27L241.5 33C241.5 33 254.501 59 251.501 59C248.501 59 244.064 50.7135 237.999 47.5C230.416 43.4819 218.403 42.7382 216.442 42.3461C214.482 41.954 208.208 43.5224 203.503 45.0907C198.798 46.6591 195.661 49.4038 193.701 55.6773C192.132 60.6961 193.047 73.7136 193.701 79.595C194.354 86.6527 195.661 101.082 195.661 102.337C195.661 103.905 195.269 116.844 193.701 125.47C192.446 132.371 193.178 133.722 193.701 138.035H198.406C199.974 138.035 210.16 139.392 218.002 139Z" fill="#70858A"/>
<ellipse rx="15.6838" ry="19.9968" transform="matrix(-1 0 0 1 216.442 22.3493)" fill="#FFD9AD"/>
<path d="M209 36H223V45C223 45 218.741 45.5 216 45.5C213.259 45.5 209 45 209 45V36Z" fill="#FFD9AD"/>
<path d="M223.891 16.8165C225.852 17.2086 230.165 16.4244 233.694 11.3272L232.518 6.62204C231.472 5.70715 229.302 3.87737 228.989 3.87737C228.597 3.87737 227.812 1.91691 223.891 0.348528C221.539 0.348528 220.363 0.348528 218.402 1.13273C216.442 1.91693 215.658 1.13272 213.305 0.348528C210.952 -0.43566 210.952 0.348528 207.816 0.348528C204.679 0.348528 203.895 2.309 203.503 3.87737C203.111 5.44575 202.326 6.62203 200.758 9.36669C199.19 12.1113 198.405 18.3849 198.013 21.9137C197.621 25.4425 200.366 31.716 200.758 32.8923C201.15 34.0686 203.503 35.2449 206.639 38.3816C209.776 41.5184 212.129 39.95 215.265 40.3421C218.402 40.7342 220.363 37.9896 219.186 36.4212C218.01 34.8528 218.794 30.1477 219.186 28.9714C219.578 27.7951 221.931 27.0109 221.931 26.2267C221.931 25.4425 221.147 23.4821 220.363 21.9137C219.578 20.3453 221.931 16.4244 223.891 16.8165Z" fill="#7E5151"/>
<path d="M573 367H863L595.5 270.5L481.5 313L454.5 293.5L427 313L238 286L0 367H573Z" fill="#E1F2DE"/>
<path d="M302.344 254.469L129.431 207.418L2 367H568.184L497.607 353.277L415.267 336.417L302.344 254.469Z" fill="#848FAC"/>
<path d="M147.075 319.165C149.898 322.615 164.98 352.493 172.169 367H2.39209L129.431 207.418L127.862 256.822L156.485 292.894C152.172 300.214 144.252 315.714 147.075 319.165Z" fill="#6C7489"/>
<path d="M223.206 44.6805C222.138 45.2258 220.672 48.2605 220.072 49.7097L219.747 55.9113L225.891 57.3268C226.172 55.4509 226.728 48.4736 227.189 47.6622C227.741 46.6897 229.291 45.7696 231.236 46.873L235.178 48.0811C235.361 46.6693 235.595 46.6706 233.837 45.0067C232.613 43.8479 231.918 43.404 228.922 43.2469C225.926 43.0898 224.54 43.9987 223.206 44.6805Z" fill="#A6CCA2"/>
<path d="M194.431 55.7543C196.568 51.5649 203.106 49.3072 206.879 47.7283C208.883 47.3095 215.136 46.6579 224.117 47.4022C235.344 48.3326 237.706 56.7252 239.535 59.6229C241.365 62.5207 242.394 69.5326 242.942 75.4506C243.462 81.0611 242.146 90.6434 241.902 95.282C241.603 100.991 240.523 105.941 240.084 114.321C239.662 122.373 236.979 121.402 235.154 122.331C233.328 123.26 221.273 123.79 210.064 123.817C198.856 123.845 191.065 119.951 187.298 118.797C183.532 117.642 183.156 113.948 183.313 110.952C183.549 106.458 185.773 92.6781 185.858 91.0583C186.016 88.0624 188.384 75.4463 188.773 73.6871C190.086 67.7477 190.847 62.7807 194.431 55.7543Z" fill="#5193A3"/>
<path d="M189.801 111.292C189.402 111.271 188.937 118.256 189.383 119.281C189.83 120.306 200.188 123.352 203.683 123.536C207.178 123.719 229.096 125.87 231.25 122.978C229.91 119.904 229.54 117.381 228.252 113.308C214.28 112.409 190.201 111.313 189.801 111.292Z" fill="#38707D"/>
<path d="M192.268 73.8701C191.888 75.3598 190.64 88.4373 190.774 92.8179L229.221 94.834L229.901 81.8518C229.807 78.4605 229.935 79.0585 229.296 74.3097C228.681 69.7462 228.61 68.2655 227.322 64.1925C226.297 60.9509 224.845 54.4791 216.541 53.8387C208.238 53.1982 202.677 55.6449 198.684 58.1641C194.583 60.7509 194.158 66.4589 192.268 73.8701Z" fill="#38707D"/>
<path d="M190.828 91.8189C190.238 92.608 190.618 95.8167 190.54 97.3113L189.805 111.292C204.602 112.341 225.457 115.278 228.228 113.808L229.275 93.8351L219.313 92.812C209.354 91.789 202.836 91.9479 200.839 91.8432C199.516 91.7739 191.44 90.9989 190.828 91.8189Z" fill="#91A7BB"/>
<path d="M211.955 89.9226L206.462 89.6346C206.226 90.9574 205.748 93.7028 205.727 94.1022C205.701 94.6015 209.03 94.2754 211.719 94.4164C212.333 94.4486 212.726 91.1313 211.955 89.9226Z" fill="#5D9DAC"/>
<path d="M237.043 87.2332C238.093 86.287 242.614 86.0232 242.614 86.0232L240.49 107.441C240.49 107.441 236.179 103.711 235.233 102.66C234.287 101.609 235.992 88.1794 237.043 87.2332Z" fill="#38707D"/>
</svg>
