<svg width="27" height="27" viewBox="0 0 27 27" fill="none" xmlns="http://www.w3.org/2000/svg">
<g clip-path="url(#clip0)">
<path d="M24.1236 22.3259L22.2922 19.2731C21.4463 17.8641 20.9994 16.2502 20.9994 14.6075V11.9334C20.9994 8.5574 18.7466 5.70195 15.666 4.7814V2.86675C15.666 1.6902 14.7092 0.733398 13.5327 0.733398C12.3561 0.733398 11.3993 1.6902 11.3993 2.86675V4.7814C8.31883 5.70195 6.06603 8.5574 6.06603 11.9334V14.6075C6.06603 16.2502 5.61908 17.863 4.77428 19.2721L2.94283 22.3249C2.84363 22.4902 2.84148 22.695 2.93643 22.8625C3.03138 23.0299 3.20738 23.1334 3.39938 23.1334H23.666C23.858 23.1334 24.0351 23.03 24.13 22.8636C24.225 22.6971 24.2218 22.4902 24.1236 22.3259Z" fill="#3874E0"/>
<path d="M10.1747 24.2002C10.7763 25.4567 12.0499 26.3335 13.5336 26.3335C15.0173 26.3335 16.2909 25.4567 16.8925 24.2002H10.1747Z" fill="#3874E0"/>
</g>
<defs>
<clipPath id="clip0">
<rect x="0.733334" y="0.733398" width="25.6" height="25.6" fill="white"/>
</clipPath>
</defs>
</svg>
