<svg width="20" height="24" viewBox="0 0 20 24" fill="none" xmlns="http://www.w3.org/2000/svg">
<path fill-rule="evenodd" clip-rule="evenodd" d="M18.2113 17.381L19.9283 20.243C20.0203 20.397 20.0233 20.591 19.9343 20.7471C19.8453 20.9031 19.6793 21 19.4993 21H0.499305C0.319305 21 0.154305 20.903 0.0652886 20.746C-0.0237264 20.589 -0.0217113 20.397 0.0712891 20.242L1.78827 17.38C2.58027 16.059 2.99929 14.547 2.99929 13.007V10.5C2.99929 7.335 5.11129 4.65802 7.99926 3.795V2.00002C7.99926 0.897 8.89626 0 9.99927 0C11.1023 0 11.9993 0.897 11.9993 2.00002V3.795C14.8873 4.65802 16.9993 7.335 16.9993 10.5V13.007C16.9993 14.547 17.4183 16.06 18.2113 17.381ZM10.0003 24C8.60932 24 7.41532 23.178 6.85132 22H13.1493C12.5853 23.178 11.3913 24 10.0003 24Z" fill="white"/>
</svg>
