<svg width="96" height="109" viewBox="0 0 96 109" fill="none" xmlns="http://www.w3.org/2000/svg">
<path d="M89.5388 109H6.46105C2.89268 109 0 106.098 0 102.518V93.5016L95.9999 76.0012V102.518C95.9999 106.098 93.1072 109 89.5388 109Z" fill="#CDBFBA"/>
<path d="M71.9618 102.518H6.47188C2.89756 102.518 0 99.6112 0 96.0255V15.5179C0 11.9322 2.89756 9.02539 6.47188 9.02539H89.528C93.1023 9.02539 95.9999 11.9322 95.9999 15.5179V78.4033C95.9999 80.1252 92.0875 81.7766 90.8739 82.9943L76.5382 97.3757C75.3246 98.5932 73.6784 102.518 71.9618 102.518Z" fill="#F9F3F1"/>
<path d="M71.9305 102.518C73.6469 102.518 75.293 101.834 76.5069 100.617L94.1032 82.9642C95.3169 81.7466 95.9987 80.0952 95.9987 78.3732V75.7429C95.9987 78.6808 93.6247 81.0624 90.6961 81.0624H79.914C76.9854 81.0624 74.6114 83.444 74.6114 86.3819V97.1984C74.6114 100.136 72.2374 102.518 69.3086 102.518H71.9305V102.518Z" fill="#EFE2DD"/>
<path d="M96.0001 15.5066V32.1816H0.00195312V15.5066C0.00195312 11.9287 2.89442 9.0249 6.46301 9.0249H89.5391C93.1079 9.0249 96.0001 11.9287 96.0001 15.5066Z" fill="#8380CD"/>
<path d="M20.7129 9.02572V4.9278C20.7129 3.99768 19.9587 3.24107 19.0315 3.24107H18.2898C17.3627 3.24107 16.6085 3.99768 16.6085 4.9278V15.4107C16.6085 16.3408 17.3629 17.0975 18.2898 17.0975C19.182 17.0975 19.905 17.823 19.905 18.7178C19.905 19.6125 19.1818 20.3381 18.2898 20.3381C15.5813 20.3381 13.3779 18.1276 13.3779 15.4105V4.9278C13.3781 2.21068 15.5816 0.000244141 18.29 0.000244141H19.0317C21.7402 0.000244141 23.9436 2.21068 23.9436 4.9278V9.02572H20.7129Z" fill="#554E56"/>
<path d="M79.3901 9.02548V4.92756C79.3901 3.99744 78.6357 3.24083 77.7088 3.24083H76.9671C76.0399 3.24083 75.2857 3.99744 75.2857 4.92756V15.4105C75.2857 16.3406 76.0399 17.0972 76.9671 17.0972C77.8592 17.0972 78.5824 17.8227 78.5824 18.7175C78.5824 19.6123 77.8592 20.3378 76.9671 20.3378C74.2586 20.3378 72.0552 18.1274 72.0552 15.4103V4.92756C72.0554 2.21044 74.2588 0 76.9671 0H77.7088C80.4172 0 82.6207 2.21044 82.6207 4.92756V9.02548H79.3901Z" fill="#554E56"/>
<path fill-rule="evenodd" clip-rule="evenodd" d="M48.3187 38.8826V38.8823C62.7147 38.8823 74.3849 50.5831 74.3849 65.0168C74.3849 79.3815 62.8259 91.0394 48.5248 91.1504C48.456 91.1511 48.3871 91.1515 48.3181 91.1515C33.9222 91.1515 22.252 79.4507 22.252 65.017C22.252 50.5833 33.9222 38.8826 48.3181 38.8826C48.3183 38.8826 48.3185 38.8826 48.3187 38.8826Z" fill="#DF818D"/>
<path fill-rule="evenodd" clip-rule="evenodd" d="M44.7235 53.9042C44.7235 53.9042 59.9762 62.7335 59.9762 62.7344C60.7807 63.2002 61.3224 64.0712 61.3224 65.0695C61.3224 66.0678 60.7807 66.9388 59.9762 67.4046L44.7227 76.2344C44.2629 76.5004 43.7318 76.6249 43.2002 76.5904C43.1975 76.5907 43.1948 76.5909 43.1922 76.5911C42.7966 76.5641 42.4008 76.4492 42.0341 76.237C41.1718 75.7378 40.6904 74.8319 40.6895 73.9001C40.6895 73.9001 40.6895 56.2415 40.6903 56.2411C40.6904 55.3097 41.1718 54.4038 42.0341 53.9046C42.4005 53.6926 42.7957 53.5778 43.191 53.5505V53.5492C43.7259 53.5125 44.2606 53.6369 44.7235 53.9042Z" fill="white"/>
</svg>
