<svg width="48" height="48" viewBox="0 0 48 48" fill="none" xmlns="http://www.w3.org/2000/svg">
<path fill-rule="evenodd" clip-rule="evenodd" d="M0 4C0 1.79086 1.79086 0 4 0H44C46.2091 0 48 1.79086 48 4V44C48 46.2091 46.2091 48 44 48H4C1.79086 48 0 46.2091 0 44L0 4Z" fill="#D1004A"/>
<path d="M33.5819 14.4204C31.1633 12.0018 27.951 10.6665 24.5296 10.6665C21.1081 10.6665 17.8958 12.0018 15.4772 14.4204C10.8116 19.086 10.4737 26.5403 14.6299 31.592C14.0561 32.7665 13.3804 33.5494 12.6135 33.9248C12.1469 34.1554 11.8842 34.6595 11.9592 35.1743C12.0397 35.6945 12.4365 36.0967 12.9567 36.1772C13.2409 36.2201 13.5466 36.2469 13.863 36.2469C15.4343 36.2469 17.086 35.7053 18.4643 34.756C20.3198 35.7535 22.4059 36.2791 24.5296 36.2791C27.951 36.2791 31.1633 34.9491 33.5819 32.5305C36.0005 30.1119 37.3305 26.8942 37.3305 23.4781C37.3305 20.0621 36.0005 16.839 33.5819 14.4204ZM32.5576 31.5008C30.4125 33.646 27.5595 34.8258 24.5296 34.8258C22.5024 34.8258 20.5128 34.2841 18.7807 33.2652C18.668 33.2008 18.5393 33.1633 18.416 33.1633C18.2605 33.1633 18.0996 33.2169 17.9709 33.3135C16.3299 34.5844 14.6782 34.7721 13.9542 34.7882C14.8176 34.1447 15.5416 33.1472 16.1475 31.7583C16.2602 31.5008 16.2119 31.2005 16.0242 30.986C12.0558 26.5027 12.2649 19.6706 16.5015 15.434C18.6466 13.2889 21.4996 12.1091 24.5296 12.1091C27.5595 12.1091 30.4125 13.2889 32.5576 15.434C36.9873 19.869 36.9873 27.0766 32.5576 31.5008Z" fill="white"/>
<path fill-rule="evenodd" clip-rule="evenodd" d="M12.6143 33.9248C13.3811 33.5494 14.0569 32.7664 14.6307 31.592C10.4745 26.5403 10.8124 19.086 15.478 14.4204C17.8966 12.0018 21.1089 10.6665 24.5303 10.6665C27.9518 10.6665 31.1641 12.0018 33.5827 14.4204C36.0013 16.839 37.3313 20.0621 37.3313 23.4781C37.3313 26.8942 36.0013 30.1119 33.5827 32.5305C31.1641 34.9491 27.9518 36.2791 24.5303 36.2791C22.4067 36.2791 20.3206 35.7535 18.465 34.756C17.0868 35.7052 15.4351 36.2469 13.8638 36.2469C13.5474 36.2469 13.2417 36.2201 12.9575 36.1772C12.4373 36.0967 12.0405 35.6945 11.96 35.1743C11.8849 34.6595 12.1477 34.1554 12.6143 33.9248ZM18.4776 34.9892C17.0896 35.917 15.4407 36.4469 13.8638 36.4469C13.5362 36.4469 13.2205 36.4191 12.9276 36.3749L12.9269 36.3748C12.3193 36.2809 11.8559 35.81 11.7624 35.2049L11.7621 35.2032L11.7621 35.2032C11.6746 34.6032 11.9809 34.0147 12.5257 33.7455L12.5263 33.7452C13.2132 33.409 13.8433 32.7078 14.3942 31.6184C10.2594 26.4893 10.629 18.9866 15.3366 14.279C17.7925 11.823 21.0557 10.4665 24.5303 10.4665C28.005 10.4665 31.2681 11.823 33.7241 14.279C36.1803 16.7352 37.5313 20.0092 37.5313 23.4781C37.5313 26.9472 36.1803 30.2157 33.7241 32.6719C31.268 35.128 28.0048 36.4791 24.5303 36.4791C22.4146 36.4791 20.3353 35.9654 18.4776 34.9892ZM32.417 31.3594L32.4171 31.3593C36.7684 27.0133 36.7686 19.9323 32.4169 15.5753C30.3093 13.4678 27.5073 12.3091 24.5303 12.3091C21.5534 12.3091 18.7513 13.4678 16.6437 15.5754C12.4818 19.7373 12.2764 26.4494 16.1747 30.8534L16.1755 30.8543C16.4131 31.1258 16.4759 31.5084 16.3316 31.8384C15.83 32.988 15.2434 33.8857 14.5555 34.5416C15.3768 34.436 16.6156 34.1107 17.8492 33.1553L17.8517 33.1534L17.8517 33.1534C18.0144 33.0314 18.2172 32.9633 18.4168 32.9633C18.5792 32.9633 18.7417 33.0121 18.8807 33.0915L18.8829 33.0928C20.5841 34.0936 22.5387 34.6257 24.5303 34.6257C27.5073 34.6257 30.3094 33.467 32.417 31.3594ZM14.3005 34.7697C14.1697 34.7806 14.0537 34.786 13.955 34.7882C14.045 34.7211 14.1335 34.6502 14.2205 34.5754C14.968 33.9325 15.6055 33.0024 16.1483 31.7582C16.2609 31.5008 16.2127 31.2005 16.025 30.986C12.0565 26.5027 12.2657 19.6706 16.5023 15.434C18.6474 13.2889 21.5004 12.1091 24.5303 12.1091C27.5603 12.1091 30.4133 13.2889 32.5584 15.434C36.988 19.869 36.988 27.0766 32.5584 31.5008C30.4133 33.6459 27.5603 34.8257 24.5303 34.8257C22.5032 34.8257 20.5136 34.2841 18.7814 33.2652C18.6688 33.2008 18.5401 33.1633 18.4168 33.1633C18.2613 33.1633 18.1004 33.2169 17.9717 33.3134C16.5545 34.4111 15.1292 34.7008 14.3005 34.7697Z" fill="white"/>
<path d="M21.3286 23.4664C21.3286 24.0556 20.8511 24.5331 20.262 24.5331C19.6729 24.5331 19.1953 24.0556 19.1953 23.4664C19.1953 22.8773 19.6729 22.3998 20.262 22.3998C20.8511 22.3998 21.3286 22.8773 21.3286 23.4664Z" fill="white"/>
<path fill-rule="evenodd" clip-rule="evenodd" d="M21.6279 23.4665C21.6279 24.2212 21.016 24.8331 20.2612 24.8331C19.5064 24.8331 18.8945 24.2212 18.8945 23.4665C18.8945 22.7117 19.5064 22.0998 20.2612 22.0998C21.016 22.0998 21.6279 22.7117 21.6279 23.4665ZM20.2612 24.5331C20.8503 24.5331 21.3279 24.0556 21.3279 23.4665C21.3279 22.8774 20.8503 22.3998 20.2612 22.3998C19.6721 22.3998 19.1945 22.8774 19.1945 23.4665C19.1945 24.0556 19.6721 24.5331 20.2612 24.5331Z" fill="white"/>
<path d="M25.5943 23.4666C25.5943 24.0557 25.1167 24.5332 24.5276 24.5332C23.9385 24.5332 23.4609 24.0557 23.4609 23.4666C23.4609 22.8775 23.9385 22.3999 24.5276 22.3999C25.1167 22.3999 25.5943 22.8775 25.5943 23.4666Z" fill="white"/>
<path fill-rule="evenodd" clip-rule="evenodd" d="M25.8935 23.4666C25.8935 24.2214 25.2816 24.8332 24.5268 24.8332C23.772 24.8332 23.1602 24.2214 23.1602 23.4666C23.1602 22.7118 23.772 22.0999 24.5268 22.0999C25.2816 22.0999 25.8935 22.7118 25.8935 23.4666ZM24.5268 24.5332C25.1159 24.5332 25.5935 24.0557 25.5935 23.4666C25.5935 22.8775 25.1159 22.3999 24.5268 22.3999C23.9377 22.3999 23.4602 22.8775 23.4602 23.4666C23.4602 24.0557 23.9377 24.5332 24.5268 24.5332Z" fill="white"/>
<path d="M29.8638 23.4666C29.8638 24.0557 29.3862 24.5332 28.7971 24.5332C28.208 24.5332 27.7305 24.0557 27.7305 23.4666C27.7305 22.8775 28.208 22.3999 28.7971 22.3999C29.3862 22.3999 29.8638 22.8775 29.8638 23.4666Z" fill="white"/>
<path fill-rule="evenodd" clip-rule="evenodd" d="M30.163 23.4666C30.163 24.2214 29.5511 24.8332 28.7964 24.8332C28.0416 24.8332 27.4297 24.2214 27.4297 23.4666C27.4297 22.7118 28.0416 22.0999 28.7964 22.0999C29.5511 22.0999 30.163 22.7118 30.163 23.4666ZM28.7964 24.5332C29.3855 24.5332 29.863 24.0557 29.863 23.4666C29.863 22.8775 29.3855 22.3999 28.7964 22.3999C28.2073 22.3999 27.7297 22.8775 27.7297 23.4666C27.7297 24.0557 28.2073 24.5332 28.7964 24.5332Z" fill="white"/>
</svg>
