<svg width="18" height="17" viewBox="0 0 18 17" fill="none" xmlns="http://www.w3.org/2000/svg">
<path fill-rule="evenodd" clip-rule="evenodd" d="M12.7695 5.60897C13.0009 5.37755 13.0009 5.00234 12.7695 4.77092C12.538 4.53949 12.1628 4.53949 11.9314 4.77092L9.00033 7.70199L6.06746 4.76912C5.83604 4.5377 5.46083 4.5377 5.22941 4.76912C4.99799 5.00055 4.99799 5.37575 5.22941 5.60718L8.16227 8.54004L5.22698 11.4753C4.99556 11.7068 4.99556 12.082 5.22698 12.3134C5.4584 12.5448 5.83361 12.5448 6.06503 12.3134L9.00033 9.37809L11.9338 12.3116C12.1653 12.543 12.5405 12.543 12.7719 12.3116C13.0033 12.0802 13.0033 11.705 12.7719 11.4735L9.83838 8.54004L12.7695 5.60897Z" fill="#98A0A9"/>
<path d="M12.7695 5.60897L13.123 5.96252L12.7695 5.60897ZM11.9314 4.77092L12.285 5.12447L11.9314 4.77092ZM9.00033 7.70199L8.64677 8.05554L9.00033 8.40909L9.35388 8.05554L9.00033 7.70199ZM8.16227 8.54004L8.51583 8.89359L8.86938 8.54004L8.51583 8.18649L8.16227 8.54004ZM6.06503 12.3134L6.41858 12.6669L6.06503 12.3134ZM9.00033 9.37809L9.35388 9.02454L9.00033 8.67098L8.64677 9.02454L9.00033 9.37809ZM11.9338 12.3116L11.5803 12.6651L11.9338 12.3116ZM12.7719 11.4735L13.1254 11.12L12.7719 11.4735ZM9.83838 8.54004L9.48483 8.18649L9.13127 8.54004L9.48483 8.89359L9.83838 8.54004ZM12.4159 5.12447C12.4521 5.16063 12.4521 5.21926 12.4159 5.25541L13.123 5.96252C13.5497 5.53584 13.5497 4.84405 13.123 4.41736L12.4159 5.12447ZM12.285 5.12447C12.3211 5.08831 12.3797 5.08831 12.4159 5.12447L13.123 4.41736C12.6963 3.99068 12.0045 3.99068 11.5778 4.41736L12.285 5.12447ZM9.35388 8.05554L12.285 5.12447L11.5778 4.41736L8.64677 7.34843L9.35388 8.05554ZM5.71391 5.12268L8.64677 8.05554L9.35388 7.34843L6.42102 4.41557L5.71391 5.12268ZM5.58296 5.12268C5.61912 5.08652 5.67775 5.08652 5.71391 5.12268L6.42102 4.41557C5.99433 3.98889 5.30254 3.98889 4.87586 4.41557L5.58296 5.12268ZM5.58296 5.25362C5.54681 5.21746 5.54681 5.15884 5.58296 5.12268L4.87586 4.41557C4.44917 4.84225 4.44917 5.53405 4.87586 5.96073L5.58296 5.25362ZM8.51583 8.18649L5.58296 5.25362L4.87586 5.96073L7.80872 8.89359L8.51583 8.18649ZM5.58053 11.8289L8.51583 8.89359L7.80872 8.18649L4.87342 11.1218L5.58053 11.8289ZM5.58053 11.9598C5.54437 11.9237 5.54437 11.865 5.58053 11.8289L4.87342 11.1218C4.44674 11.5485 4.44674 12.2403 4.87342 12.6669L5.58053 11.9598ZM5.71148 11.9598C5.67532 11.996 5.61669 11.996 5.58053 11.9598L4.87342 12.6669C5.30011 13.0936 5.9919 13.0936 6.41858 12.6669L5.71148 11.9598ZM8.64677 9.02454L5.71148 11.9598L6.41858 12.6669L9.35388 9.73165L8.64677 9.02454ZM12.2874 11.958L9.35388 9.02454L8.64677 9.73165L11.5803 12.6651L12.2874 11.958ZM12.4183 11.958C12.3822 11.9942 12.3235 11.9942 12.2874 11.958L11.5803 12.6651C12.007 13.0918 12.6988 13.0918 13.1254 12.6651L12.4183 11.958ZM12.4183 11.8271C12.4545 11.8633 12.4545 11.9219 12.4183 11.958L13.1254 12.6651C13.5521 12.2385 13.5521 11.5467 13.1254 11.12L12.4183 11.8271ZM9.48483 8.89359L12.4183 11.8271L13.1254 11.12L10.1919 8.18649L9.48483 8.89359ZM12.4159 5.25541L9.48483 8.18649L10.1919 8.89359L13.123 5.96252L12.4159 5.25541Z" fill="#98A0A9"/>
</svg>
