<svg width="18" height="18" viewBox="0 0 18 18" fill="none" xmlns="http://www.w3.org/2000/svg">
<path fill-rule="evenodd" clip-rule="evenodd" d="M12.9975 5.88901C13.2429 5.64356 13.2429 5.2456 12.9975 5.00015C12.752 4.7547 12.3541 4.7547 12.1086 5.00015L8.99982 8.10895L5.89096 5.00009C5.64551 4.75464 5.24756 4.75464 5.00211 5.00009C4.75666 5.24554 4.75666 5.64349 5.00211 5.88894L8.11096 8.9978L4.99778 12.111C4.75233 12.3564 4.75233 12.7544 4.99778 12.9998C5.24323 13.2453 5.64119 13.2453 5.88664 12.9998L8.99982 9.88666L12.1129 12.9998C12.3584 13.2452 12.7563 13.2452 13.0018 12.9998C13.2472 12.7543 13.2472 12.3564 13.0018 12.1109L9.88867 8.9978L12.9975 5.88901Z" fill="#D1004A"/>
<path d="M12.9975 5.88901L13.351 6.24256L12.9975 5.88901ZM8.99982 8.10895L8.64626 8.4625L8.99982 8.81606L9.35337 8.4625L8.99982 8.10895ZM8.11096 8.9978L8.46452 9.35136L8.81807 8.9978L8.46452 8.64425L8.11096 8.9978ZM8.99982 9.88666L9.35337 9.5331L8.99982 9.17955L8.64626 9.5331L8.99982 9.88666ZM12.1129 12.9998L11.7594 13.3533L12.1129 12.9998ZM13.0018 12.1109L12.6482 12.4645L13.0018 12.1109ZM9.88867 8.9978L9.53512 8.64425L9.18156 8.9978L9.53512 9.35136L9.88867 8.9978ZM12.6439 5.35371C12.6941 5.40389 12.6941 5.48527 12.6439 5.53545L13.351 6.24256C13.7917 5.80185 13.7917 5.08731 13.351 4.6466L12.6439 5.35371ZM12.4622 5.35371C12.5124 5.30352 12.5937 5.30352 12.6439 5.35371L13.351 4.6466C12.9103 4.20589 12.1958 4.20589 11.7551 4.6466L12.4622 5.35371ZM9.35337 8.4625L12.4622 5.35371L11.7551 4.6466L8.64626 7.7554L9.35337 8.4625ZM5.53741 5.35364L8.64626 8.4625L9.35337 7.7554L6.24451 4.64654L5.53741 5.35364ZM5.35566 5.35364C5.40585 5.30346 5.48722 5.30346 5.53741 5.35364L6.24451 4.64654C5.8038 4.20583 5.08927 4.20583 4.64855 4.64654L5.35566 5.35364ZM5.35566 5.53539C5.30547 5.4852 5.30547 5.40383 5.35566 5.35364L4.64855 4.64654C4.20784 5.08725 4.20784 5.80179 4.64855 6.2425L5.35566 5.53539ZM8.46452 8.64425L5.35566 5.53539L4.64855 6.2425L7.75741 9.35136L8.46452 8.64425ZM5.35133 12.4645L8.46452 9.35136L7.75741 8.64425L4.64423 11.7574L5.35133 12.4645ZM5.35134 12.6463C5.30115 12.5961 5.30115 12.5147 5.35133 12.4645L4.64423 11.7574C4.20352 12.1981 4.20352 12.9127 4.64423 13.3534L5.35134 12.6463ZM5.53308 12.6463C5.48289 12.6965 5.40152 12.6965 5.35134 12.6463L4.64423 13.3534C5.08494 13.7941 5.79948 13.7941 6.24019 13.3534L5.53308 12.6463ZM8.64626 9.5331L5.53308 12.6463L6.24019 13.3534L9.35337 10.2402L8.64626 9.5331ZM12.4665 12.6462L9.35337 9.5331L8.64626 10.2402L11.7594 13.3533L12.4665 12.6462ZM12.6482 12.6462C12.5981 12.6964 12.5167 12.6964 12.4665 12.6462L11.7594 13.3533C12.2001 13.794 12.9146 13.794 13.3553 13.3533L12.6482 12.6462ZM12.6482 12.4645C12.6984 12.5147 12.6984 12.596 12.6482 12.6462L13.3553 13.3533C13.7961 12.9126 13.7961 12.1981 13.3553 11.7574L12.6482 12.4645ZM9.53512 9.35136L12.6482 12.4645L13.3553 11.7574L10.2422 8.64425L9.53512 9.35136ZM12.6439 5.53545L9.53512 8.64425L10.2422 9.35136L13.351 6.24256L12.6439 5.53545Z" fill="#D1004A"/>
</svg>
