<svg width="32" height="32" viewBox="0 0 32 32" fill="none" xmlns="http://www.w3.org/2000/svg">
<rect x="9.60156" y="5.12" width="12.16" height="21.12" fill="white"/>
<path fill-rule="evenodd" clip-rule="evenodd" d="M0 16C0 7.17764 7.17764 0 16 0C24.823 0 32 7.17764 32 16C32 24.8217 24.8217 32 16 32C7.17764 32 0 24.8217 0 16ZM17.376 16.5633H19.9791L20.3161 13.2848H17.3773V11.3578C17.3773 10.6334 17.8574 10.4645 18.1951 10.4645H20.2697V7.2814L17.4114 7.27044C14.2406 7.27044 13.5187 9.64408 13.5187 11.1631V13.2841H11.6852V16.5633H13.5187V25.8413H17.376V16.5633Z" fill="#BAC5CB"/>
</svg>
