<svg width="32" height="32" viewBox="0 0 32 32" fill="none" xmlns="http://www.w3.org/2000/svg">
<path d="M16 32C24.8366 32 32 24.8366 32 16C32 7.16344 24.8366 0 16 0C7.16344 0 0 7.16344 0 16C0 24.8366 7.16344 32 16 32Z" fill="#BAC5CB"/>
<path fill-rule="evenodd" clip-rule="evenodd" d="M12.3529 7H19.6156C22.5672 7 24.9685 9.4013 24.9685 12.3529V19.6156C24.9685 22.5672 22.5672 24.9685 19.6156 24.9685H12.3529C9.4013 24.9685 7 22.5672 7 19.6156V12.3529C7 9.4013 9.4013 7 12.3529 7ZM19.6156 23.1609C21.5736 23.1609 23.1609 21.5736 23.1609 19.6156V12.3529C23.1609 10.3949 21.5736 8.80763 19.6156 8.80763H12.3529C10.3949 8.80763 8.80763 10.3949 8.80763 12.3529V19.6156C8.80763 21.5736 10.3949 23.1609 12.3529 23.1609H19.6156Z" fill="white"/>
<path fill-rule="evenodd" clip-rule="evenodd" d="M11.3359 15.9842C11.3359 13.4217 13.4207 11.3369 15.9832 11.3369C18.5458 11.3369 20.6305 13.4217 20.6305 15.9842C20.6305 18.5467 18.5458 20.6315 15.9832 20.6315C13.4207 20.6315 11.3359 18.5467 11.3359 15.9842ZM13.1436 15.9842C13.1436 17.5525 14.4149 18.8239 15.9832 18.8239C17.5515 18.8239 18.8229 17.5525 18.8229 15.9842C18.8229 14.4159 17.5515 13.1445 15.9832 13.1445C14.4149 13.1445 13.1436 14.4159 13.1436 15.9842Z" fill="white"/>
<path d="M20.6409 12.4855C21.2559 12.4855 21.7545 11.9869 21.7545 11.3719C21.7545 10.7569 21.2559 10.2583 20.6409 10.2583C20.0259 10.2583 19.5273 10.7569 19.5273 11.3719C19.5273 11.9869 20.0259 12.4855 20.6409 12.4855Z" fill="white"/>
</svg>
