<svg width="26" height="26" viewBox="0 0 26 26" fill="none" xmlns="http://www.w3.org/2000/svg">
    <path fill-rule="evenodd" clip-rule="evenodd" d="M18.9954 8.33256C19.3636 7.96444 19.3636 7.36759 18.9954 6.99947C18.6273 6.63134 18.0305 6.63134 17.6623 6.99947L12.9992 11.6626L8.33678 7.0001C7.96865 6.63198 7.37181 6.63198 7.00368 7.0001C6.63556 7.36823 6.63556 7.96508 7.00368 8.3332L11.6661 12.9957L6.99756 17.6642C6.62944 18.0324 6.62944 18.6292 6.99756 18.9973C7.36569 19.3655 7.96254 19.3655 8.33066 18.9973L12.9992 14.3288L17.6685 18.998C18.0366 19.3661 18.6334 19.3661 19.0016 18.998C19.3697 18.6299 19.3697 18.033 19.0016 17.6649L14.3323 12.9957L18.9954 8.33256Z" fill="#98A0A9"/>
    <path d="M12.9992 11.6626L12.6457 12.0161L12.9992 12.3697L13.3528 12.0161L12.9992 11.6626ZM11.6661 12.9957L12.0197 13.3492L12.3733 12.9957L12.0197 12.6421L11.6661 12.9957ZM12.9992 14.3288L13.3528 13.9752L12.9992 13.6217L12.6457 13.9752L12.9992 14.3288ZM14.3323 12.9957L13.9788 12.6421L13.6252 12.9957L13.9788 13.3492L14.3323 12.9957ZM18.6419 7.35302C18.8147 7.52588 18.8147 7.80615 18.6419 7.97901L19.349 8.68612C19.9124 8.12273 19.9124 7.2093 19.349 6.64591L18.6419 7.35302ZM18.0159 7.35302C18.1888 7.18016 18.469 7.18016 18.6419 7.35302L19.349 6.64591C18.7856 6.08253 17.8722 6.08253 17.3088 6.64591L18.0159 7.35302ZM13.3528 12.0161L18.0159 7.35302L17.3088 6.64591L12.6457 11.309L13.3528 12.0161ZM7.98322 7.35366L12.6457 12.0161L13.3528 11.309L8.69033 6.64655L7.98322 7.35366ZM7.35723 7.35366C7.5301 7.18079 7.81036 7.18079 7.98322 7.35366L8.69033 6.64655C8.12694 6.08316 7.21351 6.08316 6.65013 6.64655L7.35723 7.35366ZM7.35723 7.97965C7.18437 7.80678 7.18437 7.52652 7.35723 7.35366L6.65013 6.64655C6.08674 7.20994 6.08674 8.12337 6.65013 8.68675L7.35723 7.97965ZM12.0197 12.6421L7.35723 7.97965L6.65013 8.68675L11.3126 13.3492L12.0197 12.6421ZM7.35112 18.0178L12.0197 13.3492L11.3126 12.6421L6.64401 17.3107L7.35112 18.0178ZM7.35112 18.6438C7.17826 18.4709 7.17826 18.1907 7.35112 18.0178L6.64401 17.3107C6.08062 17.8741 6.08062 18.7875 6.64401 19.3509L7.35112 18.6438ZM7.97711 18.6438C7.80425 18.8166 7.52398 18.8166 7.35112 18.6438L6.64401 19.3509C7.2074 19.9143 8.12083 19.9143 8.68422 19.3509L7.97711 18.6438ZM12.6457 13.9752L7.97711 18.6438L8.68422 19.3509L13.3528 14.6823L12.6457 13.9752ZM18.022 18.6444L13.3528 13.9752L12.6457 14.6823L17.3149 19.3515L18.022 18.6444ZM18.648 18.6444C18.4751 18.8173 18.1949 18.8173 18.022 18.6444L17.3149 19.3515C17.8783 19.9149 18.7917 19.9149 19.3551 19.3515L18.648 18.6444ZM18.648 18.0184C18.8209 18.1913 18.8209 18.4716 18.648 18.6444L19.3551 19.3515C19.9185 18.7881 19.9185 17.8747 19.3551 17.3113L18.648 18.0184ZM13.9788 13.3492L18.648 18.0184L19.3551 17.3113L14.6859 12.6421L13.9788 13.3492ZM18.6419 7.97901L13.9788 12.6421L14.6859 13.3492L19.349 8.68612L18.6419 7.97901Z" fill="#98A0A9"/>
</svg>
