<svg width="32" height="32" viewBox="0 0 32 32" fill="none" xmlns="http://www.w3.org/2000/svg">
<path fill-rule="evenodd" clip-rule="evenodd" d="M16 32C24.8366 32 32 24.8366 32 16C32 7.16344 24.8366 0 16 0C7.16344 0 0 7.16344 0 16C0 24.8366 7.16344 32 16 32Z" fill="#BAC5CB"/>
<path d="M15.5611 19.7551C14.1573 19.6086 12.8915 19.2629 11.8078 18.4153C11.6734 18.3099 11.5345 18.2082 11.4118 18.0905C10.9375 17.6349 10.8897 17.1132 11.265 16.5755C11.5861 16.1154 12.1251 15.9923 12.6854 16.2565C12.7938 16.3077 12.8972 16.3716 12.9962 16.4403C15.0158 17.828 17.7903 17.8663 19.8175 16.5027C20.0184 16.3487 20.2331 16.2231 20.4819 16.159C20.9657 16.0348 21.4169 16.2125 21.6765 16.6358C21.9731 17.1192 21.9694 17.5911 21.6039 17.9664C21.0433 18.5418 20.369 18.9581 19.6199 19.2487C18.9115 19.5233 18.1357 19.6616 17.3678 19.7534C17.4836 19.8795 17.5383 19.9415 17.6107 20.0143C18.6534 21.062 19.7007 22.1053 20.74 23.1561C21.0941 23.5142 21.1681 23.9582 20.9731 24.3747C20.7599 24.8299 20.2828 25.1293 19.8149 25.0973C19.5184 25.0768 19.2873 24.9292 19.0819 24.7223C18.295 23.9305 17.4933 23.1533 16.7224 22.3465C16.498 22.1119 16.3901 22.1563 16.1921 22.36C15.4005 23.1749 14.5959 23.9774 13.7867 24.7752C13.4233 25.1335 12.9909 25.198 12.5695 24.9933C12.1215 24.7762 11.8365 24.3189 11.8585 23.8594C11.8736 23.5485 12.0265 23.3111 12.2399 23.0981C13.2718 22.0677 14.3008 21.0347 15.3303 20.0026C15.3984 19.9339 15.4619 19.8611 15.5611 19.7551Z" fill="white"/>
<path fill-rule="evenodd" clip-rule="evenodd" d="M11.8712 11.5728C11.8566 14.0812 13.9102 16.1573 16.4146 16.1659C18.9444 16.1746 21.0122 14.1457 21.0251 11.6424C21.0378 9.07997 19.0037 7.00685 16.4696 7.00002C13.9405 6.993 11.8856 9.03673 11.8712 11.5728ZM16.4513 9.34074C17.6943 9.34188 18.6862 10.3334 18.6906 11.5789C18.6948 12.8241 17.7055 13.8221 16.4629 13.8265C15.2165 13.831 14.2161 12.8465 14.2068 11.6058C14.1971 10.3489 15.1979 9.33941 16.4513 9.34074Z" fill="white"/>
</svg>
