<svg width="26" height="19" viewBox="0 0 26 19" fill="none" xmlns="http://www.w3.org/2000/svg">
<path d="M0 10.1428C0 10.6951 0.447715 11.1428 1 11.1428H3.95338C4.69677 11.1428 5.18026 11.9252 4.84781 12.5901L2.58073 17.1242C2.24827 17.7891 2.73177 18.5714 3.47515 18.5714H6.8105C7.18927 18.5714 7.53554 18.3574 7.70493 18.0186L11.0373 11.354C11.1067 11.2151 11.1428 11.062 11.1428 10.9068V0.999999C11.1428 0.447714 10.6951 0 10.1428 0H0.999999C0.447714 0 0 0.447715 0 1V10.1428Z" fill="#BAC5CB"/>
<path d="M15.8555 0C15.3032 0 14.8555 0.447715 14.8555 1V10.1428C14.8555 10.6951 15.3032 11.1428 15.8555 11.1428H18.8088C19.5522 11.1428 20.0357 11.9252 19.7033 12.5901L17.4362 17.1242C17.1037 17.7891 17.5872 18.5714 18.3306 18.5714H21.666C22.0447 18.5714 22.391 18.3574 22.5604 18.0186L25.8927 11.354C25.9622 11.2151 25.9983 11.062 25.9983 10.9068V0.999999C25.9983 0.447714 25.5506 0 24.9983 0H15.8555Z" fill="#BAC5CB"/>
</svg>
