<svg width="18" height="18" viewBox="0 0 18 18" fill="none" xmlns="http://www.w3.org/2000/svg">
<path fill-rule="evenodd" clip-rule="evenodd" d="M12.0452 11.3669L15.9579 15.2796C16.1435 15.4652 16.1435 15.7723 15.9579 15.9579C15.8651 16.0543 15.7401 16.1007 15.6188 16.1007C15.4974 16.1007 15.3724 16.0507 15.2796 15.9579L11.3669 12.0452C10.1602 13.0948 8.58585 13.7302 6.86511 13.7302C3.08091 13.7302 0 10.6493 0 6.86511C0 3.08091 3.07734 0 6.86511 0C10.6493 0 13.7302 3.07734 13.7302 6.86511C13.7302 8.58585 13.0948 10.1602 12.0452 11.3669ZM6.8562 2.08887C4.22506 2.08887 2.08203 4.22901 2.08203 6.86303C2.08203 9.49706 4.22506 11.6401 6.8562 11.6401C9.49022 11.6401 11.6304 9.49417 11.6304 6.86303C11.6304 4.2319 9.49022 2.08887 6.8562 2.08887Z" fill="white"/>
<path d="M12.8556 14.3283C12.4499 13.9226 12.4499 13.2649 12.8556 12.8592C13.2613 12.4536 13.919 12.4536 14.3246 12.8592L17.2627 15.7973C17.6683 16.2029 17.6683 16.8606 17.2627 17.2663C16.857 17.672 16.1993 17.672 15.7936 17.2663L12.8556 14.3283Z" fill="white"/>
</svg>
