<svg width="32" height="32" viewBox="0 0 32 32" fill="none" xmlns="http://www.w3.org/2000/svg">
<path fill-rule="evenodd" clip-rule="evenodd" d="M16 32C24.8366 32 32 24.8366 32 16C32 7.16344 24.8366 0 16 0C7.16344 0 0 7.16344 0 16C0 24.8366 7.16344 32 16 32Z" fill="#BAC5CB"/>
<path d="M23.8836 21.4358C23.8619 21.388 23.8416 21.3484 23.8227 21.3166C23.5108 20.7444 22.9147 20.042 22.0348 19.2093L22.0162 19.1902L22.0069 19.1809L21.9975 19.1713H21.988C21.5887 18.7835 21.3358 18.5228 21.2299 18.3894C21.0361 18.1351 20.9927 17.8777 21.0986 17.6169C21.1734 17.4199 21.4545 17.0038 21.9411 16.368C22.1971 16.0311 22.3998 15.7611 22.5495 15.5576C23.6292 14.0956 24.0973 13.1613 23.9537 12.7545L23.8979 12.6594C23.8605 12.6022 23.7637 12.5498 23.6079 12.5021C23.4517 12.4544 23.2521 12.4465 23.0086 12.4783L20.3128 12.4972C20.2691 12.4815 20.2067 12.4829 20.1255 12.5021C20.0443 12.5212 20.0037 12.5307 20.0037 12.5307L19.9568 12.5546L19.9196 12.5833C19.8884 12.6023 19.854 12.6356 19.8166 12.6833C19.7793 12.7308 19.7481 12.7866 19.7232 12.8502C19.4297 13.6193 19.096 14.3344 18.7214 14.9954C18.4905 15.3896 18.2785 15.7312 18.0848 16.0204C17.8914 16.3095 17.7291 16.5226 17.5982 16.6591C17.467 16.7958 17.3487 16.9053 17.2424 16.988C17.1362 17.0708 17.0552 17.1057 16.9991 17.093C16.9429 17.0802 16.8899 17.0675 16.8398 17.0548C16.7525 16.9975 16.6823 16.9197 16.6293 16.8212C16.5761 16.7227 16.5403 16.5987 16.5216 16.4493C16.503 16.2998 16.492 16.1712 16.4888 16.0631C16.4859 15.9552 16.4872 15.8025 16.4936 15.6054C16.5001 15.4083 16.503 15.2749 16.503 15.205C16.503 14.9634 16.5076 14.7012 16.5169 14.4184C16.5263 14.1355 16.534 13.9114 16.5404 13.7463C16.5467 13.581 16.5497 13.4062 16.5497 13.2218C16.5497 13.0375 16.5387 12.8929 16.5169 12.788C16.4954 12.6832 16.4624 12.5815 16.4189 12.4828C16.3751 12.3843 16.311 12.3081 16.227 12.254C16.1427 12.2 16.038 12.1571 15.9134 12.1253C15.5826 12.049 15.1614 12.0078 14.6495 12.0014C13.4889 11.9887 12.743 12.065 12.4123 12.2303C12.2812 12.3001 12.1627 12.3955 12.0566 12.5162C11.9443 12.6561 11.9286 12.7324 12.0097 12.745C12.3842 12.8021 12.6493 12.9388 12.8053 13.1549L12.8616 13.2694C12.9053 13.3521 12.949 13.4983 12.9927 13.7081C13.0363 13.9178 13.0645 14.1498 13.0769 14.4039C13.108 14.868 13.108 15.2653 13.0769 15.5957C13.0456 15.9264 13.0161 16.1837 12.988 16.3681C12.9598 16.5524 12.9177 16.7018 12.8616 16.8162C12.8053 16.9306 12.7679 17.0005 12.7492 17.0259C12.7305 17.0513 12.7149 17.0673 12.7025 17.0735C12.6213 17.1052 12.537 17.1213 12.4497 17.1213C12.3622 17.1213 12.2562 17.0768 12.1314 16.9878C12.0067 16.8987 11.8772 16.7764 11.743 16.6207C11.6088 16.4649 11.4574 16.2472 11.2889 15.9675C11.1205 15.6879 10.9457 15.3574 10.7647 14.976L10.615 14.6994C10.5214 14.5215 10.3935 14.2624 10.2312 13.9224C10.0689 13.5823 9.92538 13.2533 9.80062 12.9355C9.75075 12.802 9.67584 12.7004 9.576 12.6304L9.52915 12.6017C9.498 12.5764 9.448 12.5494 9.37941 12.5207C9.31072 12.492 9.23905 12.4714 9.1641 12.4588L6.59921 12.4777C6.33711 12.4777 6.15928 12.5382 6.06564 12.659L6.02816 12.7161C6.00944 12.748 6 12.7988 6 12.8688C6 12.9387 6.01872 13.0245 6.0562 13.1261C6.43062 14.0225 6.8378 14.8869 7.27774 15.7196C7.71767 16.5523 8.09997 17.223 8.42439 17.7312C8.74889 18.2398 9.07964 18.7198 9.41666 19.1709C9.75367 19.6223 9.97675 19.9115 10.0859 20.0386C10.1952 20.1659 10.281 20.2611 10.3434 20.3246L10.5775 20.5534C10.7272 20.706 10.9472 20.8887 11.2374 21.1016C11.5276 21.3146 11.849 21.5244 12.2016 21.7311C12.5542 21.9375 12.9645 22.106 13.4326 22.2362C13.9006 22.3667 14.3562 22.419 14.7993 22.3937H15.8758C16.0941 22.3745 16.2595 22.3046 16.372 22.1839L16.4092 22.1361C16.4343 22.0982 16.4577 22.0392 16.4793 21.9599C16.5012 21.8805 16.5121 21.793 16.5121 21.6977C16.5057 21.4245 16.5262 21.1782 16.5729 20.9589C16.6195 20.7397 16.6727 20.5744 16.7322 20.4631C16.7916 20.3519 16.8587 20.2581 16.9333 20.182C17.0082 20.1058 17.0615 20.0596 17.0928 20.0437C17.1238 20.0277 17.1487 20.0168 17.1674 20.0103C17.3171 19.9595 17.4934 20.0087 17.6964 20.1582C17.8993 20.3076 18.0895 20.492 18.2675 20.7113C18.4454 20.9307 18.6591 21.1768 18.9087 21.4501C19.1584 21.7235 19.3768 21.9267 19.5639 22.0604L19.751 22.1748C19.876 22.2511 20.0383 22.321 20.238 22.3846C20.4374 22.4481 20.6121 22.464 20.7621 22.4322L23.1584 22.3942C23.3954 22.3942 23.5798 22.3542 23.7107 22.2749C23.8417 22.1954 23.9196 22.1079 23.9447 22.0127C23.9698 21.9174 23.9711 21.8093 23.9495 21.6884C23.9273 21.5678 23.9054 21.4834 23.8836 21.4358Z" fill="white"/>
</svg>
