<svg width="32" height="32" viewBox="0 0 32 32" fill="none" xmlns="http://www.w3.org/2000/svg">
<path d="M16 32C24.8366 32 32 24.8366 32 16C32 7.16344 24.8366 0 16 0C7.16344 0 0 7.16344 0 16C0 24.8366 7.16344 32 16 32Z" fill="#BAC5CB"/>
<path fill-rule="evenodd" clip-rule="evenodd" d="M10.7303 10H21.2308C23.291 10 24.9611 11.6701 24.9611 13.7303V18.9794C24.9611 21.0396 23.291 22.7097 21.2308 22.7097H10.7303C8.6701 22.7097 7 21.0396 7 18.9794V13.7303C7 11.6701 8.6701 10 10.7303 10ZM13.7966 18.9527L18.708 16.6102C18.8558 16.5398 18.8583 16.3304 18.7123 16.2564L13.8008 13.7675C13.6697 13.7011 13.5146 13.7964 13.5146 13.9434V18.7747C13.5146 18.9197 13.6657 19.0151 13.7966 18.9527Z" fill="white"/>
</svg>
